<svg width="24" height="24" viewBox="0 0 24 24" fill="none" xmlns="http://www.w3.org/2000/svg">
<path fill-rule="evenodd" clip-rule="evenodd" d="M9.00021 6.71464C9.39074 6.32412 10.0239 6.32412 10.4144 6.71465L14.999 11.2992C15.3895 11.6897 15.3895 12.3229 14.999 12.7134C14.6085 13.1039 13.9753 13.1039 13.5848 12.7134L9.00021 8.12886C8.60969 7.73833 8.60969 7.10517 9.00021 6.71464Z" fill="white"/>
<path fill-rule="evenodd" clip-rule="evenodd" d="M14.999 11.2992C15.3895 11.6897 15.3895 12.3229 14.999 12.7134L10.4281 17.2853C10.0376 17.6758 9.40442 17.6758 9.0139 17.2853C8.62338 16.8948 8.62338 16.2616 9.01391 15.8711L13.5854 11.2996C13.9759 10.9091 14.6085 10.9087 14.999 11.2992Z" fill="white"/>
</svg>
