<svg width="24" height="24" viewBox="0 0 24 24" fill="none" xmlns="http://www.w3.org/2000/svg">
<path d="M18.9996 15.6509V17.7584C19.0004 17.9541 18.9602 18.1478 18.8817 18.327C18.8031 18.5063 18.6879 18.6672 18.5435 18.7995C18.399 18.9318 18.2285 19.0325 18.0428 19.0951C17.8571 19.1578 17.6603 19.1811 17.465 19.1635C15.299 18.9286 13.2183 18.1899 11.3902 17.0067C9.68945 15.9281 8.24748 14.489 7.16674 12.7916C5.9771 10.9589 5.23677 8.87224 5.00571 6.70075C4.98812 6.50648 5.01126 6.31069 5.07364 6.12583C5.13603 5.94097 5.2363 5.7711 5.36807 5.62704C5.49984 5.48297 5.66022 5.36787 5.839 5.28905C6.01779 5.21024 6.21106 5.16944 6.40651 5.16926H8.51826C8.85987 5.1659 9.19105 5.28663 9.45007 5.50895C9.70909 5.73127 9.87828 6.04 9.92609 6.37759C10.0152 7.05206 10.1805 7.7143 10.4188 8.35168C10.5135 8.60313 10.534 8.8764 10.4779 9.13912C10.4218 9.40184 10.2913 9.64299 10.1021 9.834L9.20809 10.7262C10.2102 12.485 11.6693 13.9413 13.4316 14.9413L14.3256 14.0491C14.5169 13.8602 14.7586 13.7301 15.0218 13.674C15.2851 13.618 15.5589 13.6385 15.8108 13.733C16.4495 13.9708 17.113 14.1358 17.7888 14.2248C18.1308 14.2729 18.4431 14.4448 18.6663 14.7077C18.8895 14.9707 19.0081 15.3063 18.9996 15.6509Z" fill="#ee242e"/>
</svg>
