<svg width="24" height="24" viewBox="0 0 24 24" fill="none" xmlns="http://www.w3.org/2000/svg">
<path fill-rule="evenodd" clip-rule="evenodd" d="M4.5 12C4.5 7.85786 7.85786 4.5 12 4.5C16.1421 4.5 19.5 7.85786 19.5 12C19.5 16.1421 16.1421 19.5 12 19.5C7.85786 19.5 4.5 16.1421 4.5 12ZM12 3.5C7.30558 3.5 3.5 7.30558 3.5 12C3.5 16.6944 7.30558 20.5 12 20.5C16.6944 20.5 20.5 16.6944 20.5 12C20.5 7.30558 16.6944 3.5 12 3.5ZM10.3905 10.6877C10.2179 10.472 9.9033 10.4371 9.68767 10.6096C9.47204 10.7821 9.43708 11.0967 9.60958 11.3124L11.6096 13.8124C11.7045 13.931 11.8481 14 12 14C12.1519 14 12.2956 13.931 12.3905 13.8124L14.3905 11.3124C14.563 11.0967 14.528 10.7821 14.3124 10.6096C14.0967 10.4371 13.7821 10.472 13.6096 10.6877L12 12.6996L10.3905 10.6877Z" fill="black"/>
</svg>
