<svg width="24" height="24" viewBox="0 0 24 24" fill="none" xmlns="http://www.w3.org/2000/svg">
<path fill-rule="evenodd" clip-rule="evenodd" d="M4.5 12C4.5 7.85786 7.85786 4.5 12 4.5C16.1421 4.5 19.5 7.85786 19.5 12C19.5 16.1421 16.1421 19.5 12 19.5C7.85786 19.5 4.5 16.1421 4.5 12ZM12 3.5C7.30558 3.5 3.5 7.30558 3.5 12C3.5 16.6944 7.30558 20.5 12 20.5C16.6944 20.5 20.5 16.6944 20.5 12C20.5 7.30558 16.6944 3.5 12 3.5ZM10.3905 13.3123C10.2179 13.528 9.9033 13.5629 9.68767 13.3904C9.47204 13.2179 9.43708 12.9033 9.60958 12.6876L11.6096 10.1876C11.7045 10.069 11.8481 9.99998 12 9.99998C12.1519 9.99998 12.2956 10.069 12.3905 10.1876L14.3905 12.6876C14.563 12.9033 14.528 13.2179 14.3124 13.3904C14.0967 13.5629 13.7821 13.528 13.6096 13.3123L12 11.3004L10.3905 13.3123Z" fill="black"/>
</svg>
