<svg id="Layer_3" data-name="Layer 3" xmlns="http://www.w3.org/2000/svg" viewBox="0 0 100 100"><defs><style>.cls-1{fill:#fff;}</style></defs><polygon class="cls-1" points="37.53 48.55 41.63 48.55 39.58 44.25 37.53 48.55"/><path class="cls-1" d="M50,11.52c-24,0-43.54,14.87-43.54,33.22,0,10.9,6.91,20.57,17.53,26.64,2.23,1.27.28,4.43.28,4.43l-8.74,11a1.18,1.18,0,0,0,.31,1.26,1.27,1.27,0,0,0,.89.36,1.25,1.25,0,0,0,.76-.28,60.44,60.44,0,0,0,12.87-4.59,102.61,102.61,0,0,0,11.8-6.21A56.19,56.19,0,0,0,50,78c24,0,43.54-14.87,43.54-33.22S74,11.52,50,11.52ZM26.69,53.74h0s0,.09,0,.13a2.88,2.88,0,0,1-5.76,0s0-.08,0-.13h0V40.64H17.08a2.53,2.53,0,0,1,0-5.05H29.9a2.54,2.54,0,1,1,0,5.07H26.69Zm22.72,1.45a2.9,2.9,0,0,1-2.53,1.46h0l-.45,0h-.08a3.11,3.11,0,0,1-.41-.11l-.07,0-.39-.17h0a2.92,2.92,0,0,1-.37-.24h0a3,3,0,0,1-.32-.3l0,0a2.79,2.79,0,0,1-.66-1.19l-.93-2H36l-.93,2a2.87,2.87,0,0,1-2.79,2.12,2.84,2.84,0,0,1-2.88-2.78,2.6,2.6,0,0,1,.2-1h0a1.75,1.75,0,0,1,.11-.24l7-14.75a2.85,2.85,0,0,1,2.83-2.29h.09a2.86,2.86,0,0,1,2.83,2.29l7,14.75a1.79,1.79,0,0,1,.12.24h0a2.34,2.34,0,0,1,.09.24h0l.06.25a.43.43,0,0,1,0,0l0,.2a2.44,2.44,0,0,1,0,.27A2.67,2.67,0,0,1,49.41,55.19Zm15,1.4v.06H53.67v-.07a2.82,2.82,0,0,1-2.61-2.76,2.72,2.72,0,0,1,.15-.86h-.15V38.89h0c0-.11,0-.22,0-.33a2.88,2.88,0,0,1,5.76,0c0,.11,0,.22,0,.33h0v13h7.59a2.37,2.37,0,1,1,0,4.73Zm18.07-.07a2.94,2.94,0,0,1-2.29-1.1h0l-5-6.53-1.06,1v3.91a2.88,2.88,0,0,1-5.75,0V38.58a2.88,2.88,0,0,1,5.75,0v3.49l5.52-5.32a2.91,2.91,0,0,1,2.16-.94,2.82,2.82,0,0,1,2.87,2.77A2.69,2.69,0,0,1,84,40.43h0l0,0a1.85,1.85,0,0,1-.14.14L79.3,44.93,84.72,52h0a2.65,2.65,0,0,1,.64,1.73A2.83,2.83,0,0,1,82.48,56.52Z"/></svg>