<svg id="Layer_3" data-name="Layer 3" xmlns="http://www.w3.org/2000/svg" viewBox="0 0 100 100"><defs><style>.cls-1{fill:#fff;}</style></defs><path class="cls-1" d="M32.08,21.12c0,1.95-.19,4.3-2.06,5.77-1.46,1.47-4.5,1.67-6.36,1.67s-4.8-.2-6.66-1.67c-1.57-1.47-1.76-3.91-1.76-5.77,0-1.67.19-4.41,1.76-5.88,1.86-1.47,4.41-1.66,6.66-1.66s4.9.19,6.36,1.66C31.89,16.71,32.08,19.25,32.08,21.12ZM15.53,86.42H31.69V34.33H15.53Z"/><path class="cls-1" d="M84.76,55.87V86.42H68.6V52.94c0-3.23-1.56-5.19-4.6-5.88a17,17,0,0,0-3.13-.1A18.06,18.06,0,0,0,54,49.22v37.2H38V34.14H51.27l.49,1a14.78,14.78,0,0,1,1,2.44,32.05,32.05,0,0,1,14.2-4c6.27-.29,11.85.49,15.86,7.15C84.27,43.44,84.76,47.75,84.76,55.87Z"/></svg>