<svg id="Layer_3" data-name="Layer 3" xmlns="http://www.w3.org/2000/svg" viewBox="0 0 100 100"><defs><style>.cls-1{fill:#fff;}</style></defs><path class="cls-1" d="M76.12,41.5A3.53,3.53,0,1,0,79.6,45,3.5,3.5,0,0,0,76.12,41.5Z"/><path class="cls-1" d="M55.53,41.26a3.82,3.82,0,1,0,3.76,3.8A3.79,3.79,0,0,0,55.53,41.26Z"/><path class="cls-1" d="M23.74,41.35a3.57,3.57,0,1,0,3.52,3.56A3.56,3.56,0,0,0,23.74,41.35Z"/><path class="cls-1" d="M95.08,27.17A15.81,15.81,0,0,0,79.34,11.28l-58.83.14a15.81,15.81,0,0,0-15.66,16l.07,30.91A15.81,15.81,0,0,0,20.66,74.18l22.11-.05,7.34,14.59,8.23-14.63,21.15,0a15.81,15.81,0,0,0,15.66-16ZM24.4,53.7A8.53,8.53,0,0,1,20,52.49v1.1l-5.88,0-.06-24.23H20l0,8a8.56,8.56,0,0,1,4.38-1.23,8.78,8.78,0,0,1,0,17.56Zm12.69,0,0-16.15c0-3.51-2.2-3.51-2.2-3.51V29.33c5.18-.09,6.95,3.39,7.55,5.83a10.25,10.25,0,0,1,.32,2.31v0l0,16.16Zm18.47.68a9.28,9.28,0,1,1,9.12-9.3A9.22,9.22,0,0,1,55.56,54.35Zm19.75,7.58V57.25s5.13.59,5.12-2.36V52.41a8.25,8.25,0,0,1-4.27,1.19,8.58,8.58,0,0,1,0-17.15,8.23,8.23,0,0,1,4.28,1.17v-.75h5.47l0,18S87.1,61.9,75.31,61.93Z"/></svg>