<svg id="Layer_3" data-name="Layer 3" xmlns="http://www.w3.org/2000/svg" viewBox="0 0 100 100"><defs><style>.cls-1{fill:#fff;}</style></defs><path class="cls-1" d="M80.16,11.61H19.84a8.23,8.23,0,0,0-8.23,8.23V80.16c0,4.54,3.68,8.23,9.68,8.23H81.61c3.09,0,6.78-3.69,6.78-8.23V19.84A8.24,8.24,0,0,0,80.16,11.61ZM50,35A15,15,0,1,1,35,50,15,15,0,0,1,50,35ZM79.31,76.48a2.77,2.77,0,0,1-2.77,2.77H22.66a2.77,2.77,0,0,1-2.77-2.77V44.37h6.47a24.31,24.31,0,1,0,48,5.63,23.78,23.78,0,0,0-.68-5.63h5.67Zm.32-43.7a2.77,2.77,0,0,1-2.77,2.77H66.53a2.77,2.77,0,0,1-2.77-2.77V22.45a2.77,2.77,0,0,1,2.77-2.77H76.86a2.77,2.77,0,0,1,2.77,2.77Z"/></svg>